HIERARCHY
ROOT Hips
{
 OFFSET 0.000000 0.000000 0.000000
 CHANNELS 6 Xposition Yposition Zposition Yrotation Xrotation Zrotation
 JOINT Chest
 {
  OFFSET 0.000000 10.383400 0.001500
  CHANNELS 3 Yrotation Xrotation Zrotation
  JOINT Chest2
  {
   OFFSET 0.000000 10.418200 -0.003100
   CHANNELS 3 Yrotation Xrotation Zrotation
   JOINT Chest3
   {
    OFFSET 0.000000 10.375100 0.000000
    CHANNELS 3 Yrotation Xrotation Zrotation
    JOINT Chest4
    {
     OFFSET 0.000000 10.364600 0.000000
     CHANNELS 3 Yrotation Xrotation Zrotation
     JOINT Neck
     {
      OFFSET 0.000000 15.642200 0.000000
      CHANNELS 3 Yrotation Xrotation Zrotation
      JOINT Head
      {
       OFFSET 0.000000 9.697300 -0.006500
       CHANNELS 3 Yrotation Xrotation Zrotation
       End Site
       {
        OFFSET 0.000000 18.492200 -0.003400
       }
      }
     }
     JOINT RightCollar
     {
      OFFSET -3.166800 10.349300 0.000000
      CHANNELS 3 Yrotation Xrotation Zrotation
      JOINT RightShoulder
      {
       OFFSET -14.729700 0.000000 0.000000
       CHANNELS 3 Yrotation Xrotation Zrotation
       JOINT RightElbow
       {
        OFFSET 0.000000 -32.224300 0.000000
        CHANNELS 3 Yrotation Xrotation Zrotation
        JOINT RightWrist
        {
         OFFSET 0.000000 -26.084100 0.000000
         CHANNELS 3 Yrotation Xrotation Zrotation
         End Site
         {
          OFFSET 0.000000 -19.319400 0.000000
         }
        }
       }
      }
     }
     JOINT LeftCollar
     {
      OFFSET 3.166800 10.349300 0.000000
      CHANNELS 3 Yrotation Xrotation Zrotation
      JOINT LeftShoulder
      {
       OFFSET 14.729700 0.000000 0.000000
       CHANNELS 3 Yrotation Xrotation Zrotation
       JOINT LeftElbow
       {
        OFFSET 0.000000 -32.224300 0.000000
        CHANNELS 3 Yrotation Xrotation Zrotation
        JOINT LeftWrist
        {
         OFFSET 0.000000 -26.084100 0.000000
         CHANNELS 3 Yrotation Xrotation Zrotation
         End Site
         {
          OFFSET 0.000000 -19.319400 0.000000
         }
        }
       }
      }
     }
    }
   }
  }
 }
 JOINT RightHip
 {
  OFFSET -8.428900 -0.007500 -0.000800
  CHANNELS 3 Yrotation Xrotation Zrotation
  JOINT RightKnee
  {
   OFFSET 0.000000 -43.834600 0.000700
   CHANNELS 3 Yrotation Xrotation Zrotation
   JOINT RightAnkle
   {
    OFFSET 0.000000 -42.757000 0.001200
    CHANNELS 3 Yrotation Xrotation Zrotation
    JOINT RightToe
    {
     OFFSET 0.000000 -6.946900 15.649300
     CHANNELS 3 Yrotation Xrotation Zrotation
     End Site
     {
      OFFSET 0.000000 -1.580800 6.825800
     }
    }
   }
  }
 }
 JOINT LeftHip
 {
  OFFSET 8.428900 -0.007500 -0.000800
  CHANNELS 3 Yrotation Xrotation Zrotation
  JOINT LeftKnee
  {
   OFFSET 0.000000 -43.834600 0.000700
   CHANNELS 3 Yrotation Xrotation Zrotation
   JOINT LeftAnkle
   {
    OFFSET 0.000000 -42.757000 0.001200
    CHANNELS 3 Yrotation Xrotation Zrotation
    JOINT LeftToe
    {
     OFFSET 0.000000 -6.946900 15.649300
     CHANNELS 3 Yrotation Xrotation Zrotation
     End Site
     {
      OFFSET 0.000000 -1.580800 6.825800
     }
    }
   }
  }
 }
}
MOTION
Frames: 11
Frame Time: 0.008333
0.000000 93.354300 0.000000 0.000000 -5.767877 0.000000 0.000000 11.653817 0.000000 0.000000 -5.885947 0.000000 0.000000 -0.000000 0.000000 0.000000 -0.000000 0.000000 0.000000 12.528835 0.000000 0.000000 0.711642 0.000000 0.000000 -0.000000 0.000000 0.000000 0.000000 -90.000000 0.000000 -2.309062 0.000000 0.000000 2.309062 0.000000 0.000000 -0.000000 0.000000 0.000000 -0.000000 90.000000 0.000000 -2.309062 0.000000 0.000000 2.309062 0.000000 0.000000 8.520406 0.000000 0.000000 1.905762 0.000000 -0.000000 -4.658285 0.000000 0.000000 -0.000000 0.000000 0.000000 8.520406 0.000000 0.000000 1.905762 0.000000 -0.000000 -4.658285 0.000000 0.000000 -0.000000 0.000000
-1.879040 151.279485 -2.064512 175.633896 -19.165993 -3.131981 -0.054838 18.871983 1.783627 -0.037681 2.196613 0.208751 -0.055766 3.651276 0.343149 -0.082717 16.353999 1.550284 -1.809169 10.116746 0.727173 -2.092863 -15.013533 1.191458 6.201433 -1.116372 -1.370994 19.284566 -22.030382 -16.058102 55.656681 -48.125033 -34.183273 17.518579 5.337530 -20.274881 -10.128008 -0.414126 -1.480568 -0.403752 -26.404325 9.246953 -20.086554 -57.659366 3.029264 -13.583826 5.151373 12.187707 5.297775 -50.651118 6.816638 -68.089814 83.778222 -65.340005 -1.015234 -17.887169 3.209780 -0.001939 -0.011276 -0.001817 3.193472 -49.084538 -5.194227 97.269432 81.150300 102.700631 7.623983 -22.003457 -9.600717 0.004010 0.008855 -0.000278
-2.135226 143.401948 -1.695592 175.635887 -19.158656 -3.136500 -0.053923 18.881822 1.787630 -0.038389 2.189230 0.208944 -0.055384 3.661707 0.343155 -0.082513 16.357392 1.552325 -1.809193 10.115389 0.725006 -2.091581 -15.015152 1.190704 6.199855 -1.131115 -1.371681 19.272465 -22.008649 -16.046106 55.699362 -48.135081 -34.227149 17.453015 5.328996 -20.444757 -10.126345 -0.421891 -1.478263 -0.405337 -26.404154 9.247624 -20.056549 -57.667343 3.008811 -13.542786 5.074918 12.298377 5.292543 -50.658255 6.821265 -68.087144 83.778860 -65.333424 -1.015877 -17.890894 3.205871 -0.001239 -0.011083 -0.000550 3.186578 -49.090156 -5.187932 97.263219 81.149761 102.693914 7.626041 -21.998972 -9.601694 0.003138 0.007177 0.001393
-2.346290 136.914503 -1.392427 175.637754 -19.151945 -3.139122 -0.053175 18.891227 1.790857 -0.036790 2.203938 0.208650 -0.058290 3.640724 0.342893 -0.083093 16.383326 1.550933 -1.807639 10.107670 0.725475 -2.091424 -15.020311 1.191093 6.204421 -1.149800 -1.369219 19.258717 -21.995333 -16.041414 55.713388 -48.150594 -34.251616 17.404869 5.307059 -20.574482 -10.124332 -0.448851 -1.471283 -0.412033 -26.392754 9.254616 -20.025961 -57.681393 2.992275 -13.528383 5.039387 12.348872 5.289025 -50.665218 6.823764 -68.068374 83.781690 -65.314963 -1.016339 -17.890168 3.206053 -0.002010 -0.010746 -0.000892 3.183459 -49.094184 -5.183669 97.252542 81.148527 102.681992 7.625244 -21.996487 -9.601835 0.002273 0.003480 0.001009
-2.499030 132.228711 -1.173423 175.637019 -19.140902 -3.138238 -0.050013 18.891583 1.792663 -0.037119 2.212106 0.208536 -0.061398 3.630377 0.341196 -0.082935 16.384970 1.549806 -1.806929 10.112560 0.726122 -2.092078 -15.019073 1.190175 6.203031 -1.143451 -1.368862 19.252848 -21.991547 -16.037106 55.723469 -48.161903 -34.271411 17.358347 5.279710 -20.673299 -10.123018 -0.450637 -1.469918 -0.413882 -26.381896 9.257593 -19.992126 -57.691683 2.970435 -13.521929 5.004254 12.394463 5.283574 -50.676529 6.827186 -68.080651 83.784593 -65.325178 -1.019462 -17.892941 3.198671 0.002188 -0.009915 0.000971 3.184701 -49.099386 -5.183522 97.213840 81.157201 102.641636 7.633550 -21.995165 -9.605587 0.000857 0.003414 0.000380
-2.596026 129.268817 -1.035410 175.647092 -19.127384 -3.137753 -0.059812 18.882270 1.790009 -0.036519 2.222088 0.209363 -0.058084 3.644017 0.343698 -0.087756 16.393232 1.550215 -1.809583 10.096558 0.723079 -2.090902 -15.033353 1.189938 6.200583 -1.157860 -1.375458 19.254232 -22.004012 -16.042043 55.711095 -48.169170 -34.267240 17.309187 5.253656 -20.772240 -10.115369 -0.471856 -1.472588 -0.432348 -26.364459 9.267012 -19.951146 -57.709763 2.947207 -13.474810 4.942983 12.504787 5.267298 -50.687078 6.827998 -68.071855 83.783697 -65.322379 -1.018212 -17.894753 3.197294 0.002062 -0.008600 0.000915 3.179085 -49.111271 -5.191059 97.193448 81.161313 102.623098 7.640318 -21.989620 -9.608617 0.001092 0.001307 0.000485
-2.648938 127.640653 -0.960592 175.650156 -19.117319 -3.138556 -0.061918 18.884859 1.790357 -0.036640 2.223791 0.210733 -0.058434 3.644250 0.344056 -0.090403 16.397168 1.550418 -1.811025 10.102903 0.721723 -2.089616 -15.035266 1.186996 6.200594 -1.154137 -1.374480 19.247291 -21.996083 -16.038982 55.663410 -48.205850 -34.250083 17.305983 5.230063 -20.873693 -10.112504 -0.468836 -1.476477 -0.439180 -26.370236 9.276504 -19.926206 -57.719080 2.925308 -13.451384 4.915344 12.567086 5.260750 -50.696061 6.829849 -68.068567 83.782599 -65.321442 -1.016757 -17.895432 3.197392 0.001638 -0.008374 0.000727 3.176102 -49.120401 -5.192202 97.184514 81.161325 102.616948 7.639085 -21.987608 -9.614832 -0.000176 -0.001140 -0.000078
-2.674483 126.864442 -0.924712 175.656692 -19.099260 -3.139180 -0.067628 18.878699 1.792191 -0.036839 2.229540 0.208018 -0.059667 3.630390 0.344906 -0.091842 16.403440 1.550330 -1.813774 10.113980 0.721219 -2.094005 -15.020309 1.188338 6.192464 -1.147197 -1.368655 19.246979 -21.985429 -16.035019 55.645599 -48.235975 -34.250412 17.287632 5.218317 -20.969028 -10.115592 -0.458101 -1.477103 -0.437329 -26.380125 9.281479 -19.906645 -57.726421 2.905340 -13.448442 4.908198 12.589792 5.255357 -50.713169 6.826651 -68.055487 83.783175 -65.309464 -1.019544 -17.896944 3.202244 0.001870 -0.008343 0.000830 3.171738 -49.137841 -5.196771 97.183231 81.160646 102.619569 7.640009 -21.986537 -9.621632 0.000939 -0.002311 0.000417
-2.684737 126.546775 -0.912274 175.657228 -19.091748 -3.139945 -0.062026 18.907921 1.792640 -0.040502 2.202290 0.209633 -0.060722 3.640511 0.345327 -0.092578 16.394873 1.549950 -1.817138 10.124671 0.721132 -2.095600 -15.020655 1.190852 6.186857 -1.130770 -1.362682 19.249418 -21.986890 -16.036099 55.658250 -48.249522 -34.275571 17.247756 5.208169 -21.047431 -10.117685 -0.441648 -1.475243 -0.435299 -26.404326 9.283457 -19.889497 -57.727105 2.883073 -13.447153 4.903137 12.609251 5.254287 -50.720154 6.827601 -68.038232 83.779021 -65.294486 -1.017557 -17.895022 3.204824 0.000712 -0.009329 0.000316 3.170934 -49.143407 -5.199338 97.162644 81.158180 102.606064 7.639528 -21.984117 -9.627953 0.001990 -0.004341 0.000883
-2.688525 126.435296 -0.908176 175.666312 -19.074562 -3.143652 -0.066161 18.909854 1.793157 -0.042649 2.193598 0.210405 -0.060074 3.651403 0.343784 -0.099210 16.412317 1.547331 -1.814082 10.102740 0.726242 -2.100783 -15.009622 1.192903 6.191832 -1.159501 -1.359709 19.232888 -21.975867 -16.022510 55.682621 -48.262085 -34.303301 17.236874 5.203545 -21.080486 -10.114212 -0.466905 -1.465653 -0.438351 -26.397275 9.290844 -19.878813 -57.743896 2.876004 -13.437821 4.899298 12.629217 5.244754 -50.735754 6.828592 -68.012961 83.776155 -65.269432 -1.019396 -17.894416 3.202930 0.002006 -0.009206 0.000890 3.162608 -49.155770 -5.196633 97.125478 81.151390 102.566857 7.634328 -21.989229 -9.629785 0.003787 -0.002390 0.001681
-2.690265 126.401999 -0.908061 175.673439 -19.058268 -3.144987 -0.069422 18.907413 1.792006 -0.044229 2.199192 0.210730 -0.060677 3.651890 0.343949 -0.100815 16.397734 1.548451 -1.814660 10.102961 0.726575 -2.107623 -14.993365 1.193680 6.187380 -1.146270 -1.356486 19.225939 -21.971943 -16.011917 55.700346 -48.276155 -34.329292 17.232612 5.197201 -21.107538 -10.118474 -0.459459 -1.462877 -0.431845 -26.393248 9.290139 -19.877345 -57.756999 2.872107 -13.440157 4.892521 12.638728 5.235050 -50.749862 6.827799 -68.014756 83.777032 -65.275285 -1.019785 -17.898422 3.202364 0.001144 -0.008757 0.000508 3.157372 -49.170321 -5.198880 97.145672 81.153768 102.589452 7.623347 -21.992475 -9.626711 0.002442 -0.002957 0.001084
